<?xml version="1.0" encoding="UTF-8"?>
<svg version="1.1" xmlns="http://www.w3.org/2000/svg" width="150" height="347">
<path d="M0 0 C3 1 3 1 4.69140625 4.1484375 C5.32397372 5.55333164 5.94698555 6.96255138 6.5625 8.375 C9.94942214 15.88457113 13.64715636 23.16709598 17.58618164 30.40185547 C23.83904615 42.02778446 27.22715461 54.33094608 23.82421875 67.57421875 C20.11852377 78.48055326 13.62939719 86.65275945 6.5234375 95.546875 C3.08766317 99.85216311 -0.12807558 104.27739415 -3.28955078 108.78564453 C-7.13319617 114.24632665 -11.16549012 119.55998674 -15.24267578 124.84814453 C-18.02222565 128.06216564 -18.02222565 128.06216564 -19 132 C-17.10850214 133.34256455 -17.10850214 133.34256455 -14.64453125 134.65234375 C-13.71785645 135.17594482 -12.79118164 135.6995459 -11.83642578 136.23901367 C-10.83853027 136.79951416 -9.84063477 137.36001465 -8.8125 137.9375 C10.72996628 149.21802152 26.30876263 162.9376874 32.41015625 185.57421875 C32.60480469 186.37472656 32.79945313 187.17523438 33 188 C33.20496094 188.81082031 33.40992188 189.62164062 33.62109375 190.45703125 C36.43431761 202.77701158 35.54464596 214.25592329 29.046875 225.328125 C24.94101186 231.38642655 20.39887564 237.05066743 15.7109375 242.66796875 C6.97805746 253.27411593 -1.2374194 264.3714497 -9.13256836 275.61254883 C-12.95122949 281.01303483 -16.97639065 286.25128892 -21 291.5 C-26.39863703 298.54459357 -31.68730127 305.63954892 -36.8046875 312.890625 C-40.15171101 317.63124904 -43.57657564 322.31430745 -47 327 C-50.84689448 325.71770184 -51.38109909 323.85686711 -53.15979004 320.37515259 C-53.55049683 319.58361786 -53.94120361 318.79208313 -54.34375 317.9765625 C-54.95929749 316.75264297 -54.95929749 316.75264297 -55.58728027 315.5039978 C-56.4561784 313.76960956 -57.32001255 312.03267663 -58.17919922 310.29345703 C-59.48106902 307.66324688 -60.80359743 305.04424321 -62.12890625 302.42578125 C-70.15756216 286.40483413 -74.88488643 273.32141993 -69.55859375 255.49609375 C-65.472848 246.33132571 -59.18628584 238.3818175 -53.0625 230.5 C-51.64496318 228.65822148 -50.22828581 226.81578113 -48.8125 224.97265625 C-48.14734375 224.10785645 -47.4821875 223.24305664 -46.796875 222.35205078 C-44.06925316 218.78168273 -41.43291669 215.15257833 -38.81640625 211.5 C-37.40897463 209.56288982 -35.98102128 207.6520287 -34.52734375 205.75 C-34.10702881 205.19836182 -33.68671387 204.64672363 -33.25366211 204.07836914 C-32.06860998 202.52730092 -30.87821623 200.98031804 -29.6875 199.43359375 C-27.81005762 197.21964921 -27.81005762 197.21964921 -28 195 C-29.48122131 193.76029238 -29.48122131 193.76029238 -31.4453125 192.56640625 C-32.18563721 192.08824463 -32.92596191 191.61008301 -33.6887207 191.11743164 C-34.89467896 190.34774048 -34.89467896 190.34774048 -36.125 189.5625 C-55.24845958 177.05124518 -75.85019422 162.76808143 -82.30078125 139.6875 C-85.01238236 125.38721256 -83.38495205 112.85556379 -75.125 100.65625 C-71.86959579 96.01233829 -68.4577292 91.49441776 -65 87 C-64.55462891 86.41750488 -64.10925781 85.83500977 -63.65039062 85.23486328 C-61.65774291 82.63000702 -59.65277076 80.03513882 -57.640625 77.4453125 C-53.84732994 72.53034418 -50.19837124 67.50783065 -46.52587891 62.50244141 C-42.20320416 56.61676562 -37.83147143 50.77008519 -33.4375 44.9375 C-28.13416297 37.89414417 -22.93775457 30.78343829 -17.80175781 23.61743164 C-12.04185895 15.61210297 -6.03302199 7.80047033 0 0 Z " fill="#C43A32" transform="translate(100,9)"/>
<path d="M0 0 C7.87741059 9.91390025 10.8146191 24.81990328 10.3359375 37.265625 C8.50879771 52.13769307 0.0018359 62.53519049 -9.2890625 73.66796875 C-18.02194254 84.27411593 -26.2374194 95.3714497 -34.13256836 106.61254883 C-37.95122949 112.01303483 -41.97639065 117.25128892 -46 122.5 C-51.39863703 129.54459357 -56.68730127 136.63954892 -61.8046875 143.890625 C-65.15171101 148.63124904 -68.57657564 153.31430745 -72 158 C-75.84689448 156.71770184 -76.38109909 154.85686711 -78.15979004 151.37515259 C-78.55049683 150.58361786 -78.94120361 149.79208313 -79.34375 148.9765625 C-79.75411499 148.16061615 -80.16447998 147.3446698 -80.58728027 146.5039978 C-81.4561784 144.76960956 -82.32001255 143.03267663 -83.17919922 141.29345703 C-84.48106902 138.66324688 -85.80359743 136.04424321 -87.12890625 133.42578125 C-95.15756216 117.40483413 -99.88488643 104.32141993 -94.55859375 86.49609375 C-90.43099731 77.2374501 -84.06030091 69.21255184 -77.875 61.25 C-76.49642321 59.46429212 -75.11879772 57.67784936 -73.7421875 55.890625 C-73.09733398 55.05853516 -72.45248047 54.22644531 -71.78808594 53.36914062 C-70.18159902 51.24061126 -68.68195731 49.07210737 -67.1953125 46.859375 C-66.47085938 45.91578125 -65.74640625 44.9721875 -65 44 C-64.01 44 -63.02 44 -62 44 C-61.67 43.01 -61.34 42.02 -61 41 C-56.25 40.875 -56.25 40.875 -54 42 C-53.505 41.01 -53.505 41.01 -53 40 C-53.66 40 -54.32 40 -55 40 C-55.25 37.6875 -55.25 37.6875 -55 35 C-53 33.3125 -53 33.3125 -51 32 C-51 31.34 -51 30.68 -51 30 C-50.34 30 -49.68 30 -49 30 C-49.495 27.03 -49.495 27.03 -50 24 C-50.66 24 -51.32 24 -52 24 C-52 23.34 -52 22.68 -52 22 C-49.625 22.25 -49.625 22.25 -47 23 C-45.875 24.8125 -45.875 24.8125 -45 27 C-44.02418241 28.35113205 -43.02970259 29.68946944 -42 31 C-41.34 30.67 -40.68 30.34 -40 30 C-37.42345585 32.57654415 -34.86157931 35.14830788 -32.375 37.8125 C-30.17037709 40.33873788 -30.17037709 40.33873788 -27 40 C-27.66 41.32 -28.32 42.64 -29 44 C-29.47421387 43.61142822 -29.94842773 43.22285645 -30.43701172 42.82250977 C-32.58141165 41.06721254 -34.72817145 39.31482587 -36.875 37.5625 C-37.62136719 36.95083984 -38.36773437 36.33917969 -39.13671875 35.70898438 C-39.85214844 35.12568359 -40.56757812 34.54238281 -41.3046875 33.94140625 C-41.96452637 33.40201416 -42.62436523 32.86262207 -43.30419922 32.30688477 C-44.97603488 30.93208673 -44.97603488 30.93208673 -47 30 C-45.71567661 33.49705129 -45.71567661 33.49705129 -44 37 C-43.01 37.33 -42.02 37.66 -41 38 C-41 38.99 -41 39.98 -41 41 C-39.68 41.33 -38.36 41.66 -37 42 C-37 43.32 -37 44.64 -37 46 C-34.525 45.505 -34.525 45.505 -32 45 C-32 45.99 -32 46.98 -32 48 C-30.35 48.33 -28.7 48.66 -27 49 C-27.0825 49.721875 -27.165 50.44375 -27.25 51.1875 C-26.92535727 54.83973072 -25.32017805 56.24478857 -23 59 C-23 59.99 -23 60.98 -23 62 C-22.34 62 -21.68 62 -21 62 C-20.34 62.99 -19.68 63.98 -19 65 C-15.00002847 65.97167815 -15.00002847 65.97167815 -11 66 C-8.60204619 64.18712805 -8.60204619 64.18712805 -7 62 C-6.34 62 -5.68 62 -5 62 C-5 61.01 -5 60.02 -5 59 C-3.5390625 57.82421875 -3.5390625 57.82421875 -1.625 56.6875 C0.87138053 54.97627141 1.91370777 54.16081733 3.375 51.4375 C4.30525588 46.32109265 4.68107614 41.18670916 5 36 C5.66 36 6.32 36 7 36 C6.67 34.35 6.34 32.7 6 31 C5.67 31 5.34 31 5 31 C4.41898708 27.44129585 3.99801248 24.11130131 4.0625 20.5 C3.99432215 16.68204067 3.09899478 13.64042022 2 10 C2 8.68 2 7.36 2 6 C0.68 5.34 -0.64 4.68 -2 4 C-1.34 2.68 -0.68 1.36 0 0 Z M7 37 C6.67 37.66 6.34 38.32 6 39 C6.66 39 7.32 39 8 39 C7.67 38.34 7.34 37.68 7 37 Z " fill="#E84136" transform="translate(125,178)"/>
<path d="M0 0 C3 1 3 1 4.69140625 4.1484375 C5.32397372 5.55333164 5.94698555 6.96255138 6.5625 8.375 C9.94942214 15.88457113 13.64715636 23.16709598 17.58618164 30.40185547 C23.83904615 42.02778446 27.22715461 54.33094608 23.82421875 67.57421875 C20.11852377 78.48055326 13.62939719 86.65275945 6.5234375 95.546875 C3.51075037 99.32200247 0.64893182 103.17220433 -2.125 107.125 C-5.83523995 112.39589644 -9.63521446 117.59117565 -13.5 122.75 C-14.0170752 123.4423877 -14.53415039 124.13477539 -15.06689453 124.84814453 C-15.55013184 125.49122559 -16.03336914 126.13430664 -16.53125 126.796875 C-16.95986328 127.36760742 -17.38847656 127.93833984 -17.83007812 128.52636719 C-19 130 -19 130 -21 132 C-23.17245573 130.54970675 -25.33780089 129.09044056 -27.5 127.625 C-28.12003906 127.2125 -28.74007812 126.8 -29.37890625 126.375 C-30.95525621 125.30100332 -32.48208757 124.15511468 -34 123 C-34 122.34 -34 121.68 -34 121 C-35.65 120.34 -37.3 119.68 -39 119 C-39 118.34 -39 117.68 -39 117 C-39.58007812 116.731875 -40.16015625 116.46375 -40.7578125 116.1875 C-50.85275979 110.84104708 -56.01833997 101.61367961 -59.375 91.0625 C-60.31597501 87.8532397 -61 85.34426519 -61 82 C-59.96875 80.24853516 -59.96875 80.24853516 -58.5 78.2890625 C-57.95053711 77.54938232 -57.40107422 76.80970215 -56.83496094 76.04760742 C-56.22942383 75.24814697 -55.62388672 74.44868652 -55 73.625 C-54.37641602 72.79009033 -53.75283203 71.95518066 -53.11035156 71.0949707 C-47.6920896 63.86010008 -42.19365616 56.68544537 -36.69897461 49.50854492 C-32.48483481 43.99173121 -28.37394416 38.41874891 -24.36962891 32.74829102 C-20.77544266 27.65944001 -17.04806485 22.67884112 -13.29052734 17.70996094 C-10.66408487 14.22989982 -8.05234983 10.73877434 -5.4375 7.25 C-4.39458129 5.85933747 -3.35161681 4.46870927 -2.30859375 3.078125 C-1.54675781 2.06234375 -0.78492188 1.0465625 0 0 Z " fill="#EE4237" transform="translate(100,9)"/>
<path d="M0 0 C2 1 2 1 3.10546875 3.765625 C3.64107422 5.49039063 3.64107422 5.49039063 4.1875 7.25 C4.55230469 8.38953125 4.91710937 9.5290625 5.29296875 10.703125 C5.99267817 13.96585844 5.93298819 15.83853682 5 19 C3.23537317 15.91190305 3 14.76687864 3 11 C1.68 11 0.36 11 -1 11 C-1 10.01 -1 9.02 -1 8 C-1.66 8.66 -2.32 9.32 -3 10 C-3.66 10.66 -4.32 11.32 -5 12 C-5.71927295 14.31765729 -6.3909893 16.65095874 -7 19 C-7.763125 19 -8.52625 19 -9.3125 19 C-12.07586479 19.70226309 -12.07586479 19.70226309 -13 21.7421875 C-14.23337564 24.97979857 -15 27.50869787 -15 31 C-15.66 31.33 -16.32 31.66 -17 32 C-17 32.99 -17 33.98 -17 35 C-17.63106429 37.01151741 -18.29373761 39.01363702 -19 41 C-18.34 41 -17.68 41 -17 41 C-17.66 44.3 -18.32 47.6 -19 51 C-18.34 51.33 -17.68 51.66 -17 52 C-15.9805881 52.98020375 -14.97753644 53.97803008 -14 55 C-14.66 55 -15.32 55 -16 55 C-15.17812739 59.38332057 -14.09845718 63.67940177 -13 68 C-13.99 68.495 -13.99 68.495 -15 69 C-15.63381508 67.67083439 -16.25648484 66.33635391 -16.875 65 C-17.22304688 64.2575 -17.57109375 63.515 -17.9296875 62.75 C-22.17358924 51.8459605 -23.03614197 38.6851383 -19.3125 27.5 C-14.97901487 17.6774337 -7.76076515 7.46105495 0 0 Z " fill="#753836" transform="translate(38,93)"/>
<path d="M0 0 C7.87741059 9.91390025 10.8146191 24.81990328 10.3359375 37.265625 C8.83846771 49.4543326 3.04886382 60.61606866 -6 69 C-6 67.68 -6 66.36 -6 65 C-5.34 65 -4.68 65 -4 65 C-3.9071875 63.39125 -3.9071875 63.39125 -3.8125 61.75 C-2.83142597 57.22196601 -1.57400715 56.70229809 2 54 C4.75643564 48.48712873 4.62749696 42.05807579 5 36 C5.66 36 6.32 36 7 36 C6.67 34.35 6.34 32.7 6 31 C5.67 31 5.34 31 5 31 C4.41898708 27.44129585 3.99801248 24.11130131 4.0625 20.5 C3.99432215 16.68204067 3.09899478 13.64042022 2 10 C2 8.68 2 7.36 2 6 C0.68 5.34 -0.64 4.68 -2 4 C-1.34 2.68 -0.68 1.36 0 0 Z M7 37 C6.67 37.66 6.34 38.32 6 39 C6.66 39 7.32 39 8 39 C7.67 38.34 7.34 37.68 7 37 Z " fill="#E25752" transform="translate(125,178)"/>
<path d="M0 0 C8.97832863 3.87649921 19.67458043 12.78311551 25 21 C25.66796875 23.22265625 25.66796875 23.22265625 26 25 C26.66 25 27.32 25 28 25 C31.07692308 31.4 31.07692308 31.4 30.6875 34.4375 C30.460625 34.953125 30.23375 35.46875 30 36 C28.68 36 27.36 36 26 36 C26 34.68 26 33.36 26 32 C25.34 32 24.68 32 24 32 C23.54625 31.071875 23.0925 30.14375 22.625 29.1875 C21.0578367 25.96078611 21.0578367 25.96078611 19 23 C19.375 20.8125 19.375 20.8125 20 19 C17.69 18.67 15.38 18.34 13 18 C13 17.34 13 16.68 13 16 C12.01 16 11.02 16 10 16 C9.896875 15.360625 9.79375 14.72125 9.6875 14.0625 C9.460625 13.381875 9.23375 12.70125 9 12 C8.01 11.67 7.02 11.34 6 11 C6 10.01 6 9.02 6 8 C5.34 8 4.68 8 4 8 C3.34 8.66 2.68 9.32 2 10 C0.68373308 6.38026598 0 3.90432869 0 0 Z " fill="#9F322D" transform="translate(78,208)"/>
<path d="M0 0 C0 0.99 0 1.98 0 3 C-0.66 3 -1.32 3 -2 3 C-1.88693303 4.95894361 -1.88693303 4.95894361 -1 7 C1.88719595 8.48261414 4.83976631 9.29772585 8 10 C7.67 12.31 7.34 14.62 7 17 C7.61875 17.103125 8.2375 17.20625 8.875 17.3125 C11 18 11 18 13 21 C13.99 20.34 14.98 19.68 16 19 C16 20.65 16 22.3 16 24 C16.66 24.33 17.32 24.66 18 25 C17.67 25.66 17.34 26.32 17 27 C7.78405411 22.98387679 -2.49669111 12.43167509 -8 4 C-8 3.01 -8 2.02 -8 1 C-5.29120665 -0.35439668 -2.99066732 -0.06501451 0 0 Z " fill="#AD413C" transform="translate(32,160)"/>
<path d="M0 0 C0.66 0.33 1.32 0.66 2 1 C2 1.66 2 2.32 2 3 C2.66 3.33 3.32 3.66 4 4 C3.34 4.66 2.68 5.32 2 6 C1.35232207 8.57061311 1.35232207 8.57061311 1 11 C1.66 11 2.32 11 3 11 C2.34 14.3 1.68 17.6 1 21 C1.66 21.33 2.32 21.66 3 22 C4.0194119 22.98020375 5.02246356 23.97803008 6 25 C5.34 25 4.68 25 4 25 C4.82187261 29.38332057 5.90154282 33.67940177 7 38 C6.01 38.495 6.01 38.495 5 39 C4.36618492 37.67083439 3.74351516 36.33635391 3.125 35 C2.77695312 34.2575 2.42890625 33.515 2.0703125 32.75 C-0.56596366 25.97650212 -1.30138138 19.94250822 -1.1875 12.75 C-1.18685547 11.96109375 -1.18621094 11.1721875 -1.18554688 10.359375 C-1.15784966 6.71565236 -0.98811356 3.52665367 0 0 Z " fill="#873F3C" transform="translate(18,123)"/>
<path d="M0 0 C0.99 0.99 1.98 1.98 3 3 C3.66 2.67 4.32 2.34 5 2 C5.33 3.32 5.66 4.64 6 6 C6.66 6 7.32 6 8 6 C11.07692308 12.4 11.07692308 12.4 10.6875 15.4375 C10.460625 15.953125 10.23375 16.46875 10 17 C8.68 17 7.36 17 6 17 C6 15.68 6 14.36 6 13 C5.34 13 4.68 13 4 13 C3.54625 12.071875 3.0925 11.14375 2.625 10.1875 C1.0578367 6.96078611 1.0578367 6.96078611 -1 4 C-0.625 1.8125 -0.625 1.8125 0 0 Z " fill="#A6332C" transform="translate(98,227)"/>
<path d="M0 0 C2.375 0.25 2.375 0.25 5 1 C6.125 2.8125 6.125 2.8125 7 5 C7.97581759 6.35113205 8.97029741 7.68946944 10 9 C10.66 8.67 11.32 8.34 12 8 C14.57654415 10.57654415 17.13842069 13.14830788 19.625 15.8125 C21.82962291 18.33873788 21.82962291 18.33873788 25 18 C24.34 19.32 23.68 20.64 23 22 C22.31224487 21.43285278 22.31224487 21.43285278 21.6105957 20.85424805 C19.51402135 19.12857555 17.4133131 17.40800925 15.3125 15.6875 C14.59126953 15.09259766 13.87003906 14.49769531 13.12695312 13.88476562 C10.14001584 11.44338766 7.36630613 9.20234504 3.98046875 7.33203125 C3.32691406 6.89246094 2.67335938 6.45289063 2 6 C2 4.68 2 3.36 2 2 C1.34 2 0.68 2 0 2 C0 1.34 0 0.68 0 0 Z " fill="#D74136" transform="translate(73,200)"/>
<path d="M0 0 C0.33 0 0.66 0 1 0 C1.07476562 0.58265625 1.14953125 1.1653125 1.2265625 1.765625 C2.4058477 9.11881509 4.93944202 15.72834938 9 22 C9.99 22.33 10.98 22.66 12 23 C13.05771739 24.63064764 14.05273046 26.30280873 15 28 C15.98244845 29.34631825 16.97676564 30.68441297 18 32 C17.67 32.66 17.34 33.32 17 34 C6.64788309 26.06512867 2.00161389 16.58912179 -1 4 C-1 1 -1 1 0 0 Z " fill="#D34842" transform="translate(40,90)"/>
<path d="M0 0 C0 0.99 0 1.98 0 3 C-0.66 3 -1.32 3 -2 3 C-1.65213292 4.97536745 -1.65213292 4.97536745 -1 7 C-0.34 7.33 0.32 7.66 1 8 C1 9.32 1 10.64 1 12 C1.99 12.33 2.98 12.66 4 13 C5.1875 15.5625 5.1875 15.5625 6 18 C0.87472365 13.81610094 -4.17619795 9.45095186 -8 4 C-8 3.01 -8 2.02 -8 1 C-5.29120665 -0.35439668 -2.99066732 -0.06501451 0 0 Z " fill="#974041" transform="translate(32,160)"/>
<path d="M0 0 C5.48046681 6.26339064 6.46009387 13.52129347 6.6875 21.5 C6.73874023 22.73363281 6.73874023 22.73363281 6.79101562 23.9921875 C6.8724988 25.9943455 6.93794575 27.99714568 7 30 C6.34 30.33 5.68 30.66 5 31 C4.41898708 27.44129585 3.99801248 24.11130131 4.0625 20.5 C3.99432215 16.68204067 3.09899478 13.64042022 2 10 C2 8.68 2 7.36 2 6 C0.68 5.34 -0.64 4.68 -2 4 C-1.34 2.68 -0.68 1.36 0 0 Z " fill="#F14133" transform="translate(125,178)"/>
<path d="M0 0 C6.83383273 3.23468082 14.14345284 8.33575743 18 15 C17.67 15.99 17.34 16.98 17 18 C16.34 17.01 15.68 16.02 15 15 C11.94570927 13.78715124 11.94570927 13.78715124 9 13 C9 12.01 9 11.02 9 10 C8.01 9.67 7.02 9.34 6 9 C5.9071875 7.824375 5.9071875 7.824375 5.8125 6.625 C5.544375 5.75875 5.27625 4.8925 5 4 C2.52363988 2.62533375 2.52363988 2.62533375 0 2 C0 1.34 0 0.68 0 0 Z " fill="#942C22" transform="translate(84,213)"/>
<path d="M0 0 C0.33 0.66 0.66 1.32 1 2 C1.66 2.33 2.32 2.66 3 3 C2.690625 3.598125 2.38125 4.19625 2.0625 4.8125 C0.89790296 7.08956772 0.89790296 7.08956772 0 10 C0.66 10 1.32 10 2 10 C1.67 10.99 1.34 11.98 1 13 C-1.31 12.67 -3.62 12.34 -6 12 C-6.33 12.66 -6.66 13.32 -7 14 C-7.66 14 -8.32 14 -9 14 C-7.45158425 10.65291949 -5.50894136 7.75332488 -3.375 4.75 C-2.74335937 3.85796875 -2.11171875 2.9659375 -1.4609375 2.046875 C-0.73777344 1.03367188 -0.73777344 1.03367188 0 0 Z " fill="#D3473F" transform="translate(70,208)"/>
<path d="M0 0 C6.55088411 7.4867247 7.23788064 17.45079149 7 27 C6.34 27.99 5.68 28.98 5 30 C5 25.05 5 20.1 5 15 C4.34 15 3.68 15 3 15 C2.86722656 14.36191406 2.73445313 13.72382812 2.59765625 13.06640625 C2.42105469 12.24011719 2.24445313 11.41382813 2.0625 10.5625 C1.88847656 9.73878906 1.71445313 8.91507813 1.53515625 8.06640625 C1.19247006 6.02338796 1.19247006 6.02338796 0 5 C-0.04063832 3.33382885 -0.042721 1.66611905 0 0 Z " fill="#DF5C57" transform="translate(118,42)"/>
<path d="M0 0 C0.33 0.99 0.66 1.98 1 3 C-0.18656341 4.51616436 -1.38454013 6.02626473 -2.6640625 7.46484375 C-6.13421816 11.45247877 -8.01147266 16.17071933 -10 21 C-11.65 21 -13.3 21 -15 21 C-10.4754266 13.56273248 -5.58047693 6.68207757 0 0 Z " fill="#E15A55" transform="translate(94,17)"/>
<path d="M0 0 C0.66 1.32 1.32 2.64 2 4 C1.57847656 4.48210937 1.15695313 4.96421875 0.72265625 5.4609375 C0.17480469 6.09257812 -0.37304688 6.72421875 -0.9375 7.375 C-1.48277344 8.00148438 -2.02804688 8.62796875 -2.58984375 9.2734375 C-4.06958624 10.95632334 -4.06958624 10.95632334 -5 13 C-5.66 13 -6.32 13 -7 13 C-7.28875 14.258125 -7.5775 15.51625 -7.875 16.8125 C-8.57303539 19.8539399 -9.20446585 21.30669878 -11 24 C-10.58829715 14.94253726 -5.74313595 6.80206557 0 0 Z " fill="#DE514D" transform="translate(40,249)"/>
<path d="M0 0 C3 1 3 1 4.16796875 2.99609375 C4.50441406 3.80175781 4.84085938 4.60742188 5.1875 5.4375 C5.53167969 6.24058594 5.87585938 7.04367188 6.23046875 7.87109375 C7 10 7 10 7 12 C6.34 12 5.68 12 5 12 C4.9175 11.21625 4.835 10.4325 4.75 9.625 C4.27193661 6.85250896 4.27193661 6.85250896 1.9375 5.6875 C1.298125 5.460625 0.65875 5.23375 0 5 C-0.33 5.99 -0.66 6.98 -1 8 C-2.32 8 -3.64 8 -5 8 C-3.62845496 5.04590299 -2.01136276 2.55991624 0 0 Z " fill="#DF5A50" transform="translate(100,9)"/>
<path d="M0 0 C0.99 0.495 0.99 0.495 2 1 C2 1.66 2 2.32 2 3 C2.66 3 3.32 3 4 3 C4.33 3.66 4.66 4.32 5 5 C7.01669827 6.13350534 7.01669827 6.13350534 9 7 C8.67 9.64 8.34 12.28 8 15 C7.34 15 6.68 15 6 15 C5.49384702 13.73160474 4.99530901 12.46016898 4.5 11.1875 C4.2215625 10.47980469 3.943125 9.77210938 3.65625 9.04296875 C3 7 3 7 3 4 C2.34 4 1.68 4 1 4 C0.67 2.68 0.34 1.36 0 0 Z " fill="#E6433A" transform="translate(103,229)"/>
<path d="M0 0 C0.33 0.66 0.66 1.32 1 2 C1.66 2.33 2.32 2.66 3 3 C0.03 6.63 -2.94 10.26 -6 14 C-7 11 -7 11 -6.25 8.4375 C-5 6 -5 6 -2 4 C-0.80767387 1.94996045 -0.80767387 1.94996045 0 0 Z " fill="#D84B44" transform="translate(116,245)"/>
<path d="M0 0 C4.78902145 2.43969017 7.62722182 3.97529326 10 9 C9.01 9.495 9.01 9.495 8 10 C7.5875 9.505 7.175 9.01 6.75 8.5 C4.87797662 6.56613908 4.87797662 6.56613908 1 7 C0.67 4.69 0.34 2.38 0 0 Z " fill="#BA372D" transform="translate(72,136)"/>
<path d="M0 0 C0 3.10551666 -0.5393715 4.35261084 -2 7 C-1.01 6.67 -0.02 6.34 1 6 C0.34 7.65 -0.32 9.3 -1 11 C-1.33 10.34 -1.66 9.68 -2 9 C-2.99 9 -3.98 9 -5 9 C-5.33 9.99 -5.66 10.98 -6 12 C-6.66 12 -7.32 12 -8 12 C-6.59023295 8.96147295 -4.91129772 6.4060405 -2.875 3.75 C-2.06675781 2.69039062 -2.06675781 2.69039062 -1.2421875 1.609375 C-0.83226562 1.07828125 -0.42234375 0.5471875 0 0 Z " fill="#E1524B" transform="translate(63,59)"/>
<path d="M0 0 C0 0.99 0 1.98 0 3 C-0.66 3 -1.32 3 -2 3 C-1.67 4.32 -1.34 5.64 -1 7 C-1.99 7 -2.98 7 -4 7 C-4.33 6.34 -4.66 5.68 -5 5 C-5.99 4.67 -6.98 4.34 -8 4 C-8 3.01 -8 2.02 -8 1 C-5.29120665 -0.35439668 -2.99066732 -0.06501451 0 0 Z " fill="#9B3634" transform="translate(32,160)"/>
<path d="M0 0 C3.83953399 1.27984466 5.65316744 3.81501296 8 7 C6.68 7.33 5.36 7.66 4 8 C4 7.01 4 6.02 4 5 C1.03 4.505 1.03 4.505 -2 4 C-2 3.01 -2 2.02 -2 1 C-1.34 0.67 -0.68 0.34 0 0 Z " fill="#D54F4B" transform="translate(110,161)"/>
<path d="M0 0 C1.98 0.66 3.96 1.32 6 2 C5.67 3.65 5.34 5.3 5 7 C2 7 2 7 0.25 5.75 C-1 4 -1 4 -0.6875 1.8125 C-0.460625 1.214375 -0.23375 0.61625 0 0 Z " fill="#A9342F" transform="translate(34,168)"/>
<path d="M0 0 C0 0.66 0 1.32 0 2 C-0.99 2.495 -0.99 2.495 -2 3 C-2.28875 4.093125 -2.5775 5.18625 -2.875 6.3125 C-4.02457251 10.08054322 -5.03213219 11.52677682 -8 14 C-8 12.68 -8 11.36 -8 10 C-7.34 10 -6.68 10 -6 10 C-5.896875 8.906875 -5.79375 7.81375 -5.6875 6.6875 C-5 3 -5 3 -3.5625 1.0625 C-2 0 -2 0 0 0 Z " fill="#E94C48" transform="translate(127,233)"/>
<path d="M0 0 C4.13333333 6.2 4.13333333 6.2 3.625 9.25 C3.41875 9.8275 3.2125 10.405 3 11 C1.68 11 0.36 11 -1 11 C-0.67 7.37 -0.34 3.74 0 0 Z " fill="#B5332A" transform="translate(105,233)"/>
<path d="M0 0 C2.96052484 3.36423277 3.92289822 6.69159287 5 11 C4.01 10.67 3.02 10.34 2 10 C2 8.68 2 7.36 2 6 C0.68 5.34 -0.64 4.68 -2 4 C-1.34 2.68 -0.68 1.36 0 0 Z " fill="#E15751" transform="translate(125,178)"/>
<path d="M0 0 C1.67250523 3.10293734 2.77361582 6.17739446 3.75 9.5625 C4.17539062 10.98755859 4.17539062 10.98755859 4.609375 12.44140625 C5 15 5 15 3 18 C2.49095343 16.12743583 1.99317545 14.25180659 1.5 12.375 C1.08234375 10.80878906 1.08234375 10.80878906 0.65625 9.2109375 C0.00881404 6.04312582 -0.1161292 3.22258533 0 0 Z " fill="#8C2A24" transform="translate(39,94)"/>
<path d="M0 0 C0.33 0.66 0.66 1.32 1 2 C1.66 2.33 2.32 2.66 3 3 C2.67 3.639375 2.34 4.27875 2 4.9375 C0.92728775 6.76794567 0.92728775 6.76794567 1 8 C-0.98 8 -2.96 8 -5 8 C-3.35 5.36 -1.7 2.72 0 0 Z " fill="#C44947" transform="translate(70,208)"/>
<path d="M0 0 C0.99 0 1.98 0 3 0 C3 1.98 3 3.96 3 6 C1.35 6.33 -0.3 6.66 -2 7 C-1.34 4.69 -0.68 2.38 0 0 Z " fill="#742A27" transform="translate(29,105)"/>
<path d="M0 0 C3.33557632 2.9905167 5.15083921 5.93184627 7 10 C6.34 10 5.68 10 5 10 C5 9.34 5 8.68 5 8 C4.01 8 3.02 8 2 8 C2 7.01 2 6.02 2 5 C1.34 5 0.68 5 0 5 C0 3.35 0 1.7 0 0 Z " fill="#D9524F" transform="translate(118,168)"/>
<path d="M0 0 C2 1.75 2 1.75 4 4 C4 5.32 4 6.64 4 8 C0.125 6.25 0.125 6.25 -1 4 C-0.5625 1.875 -0.5625 1.875 0 0 Z " fill="#993531" transform="translate(98,227)"/>
<path d="M0 0 C2.88437779 1.29299694 4.87219421 2.65941363 7 5 C4.3333581 6.33332095 2.83319697 5.67102033 0 5 C-0.33 4.01 -0.66 3.02 -1 2 C-0.67 1.34 -0.34 0.68 0 0 Z " fill="#CF4E4E" transform="translate(100,153)"/>
<path d="M0 0 C0.66 0.33 1.32 0.66 2 1 C2 1.66 2 2.32 2 3 C2.66 3.33 3.32 3.66 4 4 C2.625 6.5 2.625 6.5 1 9 C0.34 9 -0.32 9 -1 9 C-0.67 6.03 -0.34 3.06 0 0 Z " fill="#824744" transform="translate(18,123)"/>
<path d="M0 0 C2.96865509 2.54456151 4.3619751 5.48994665 6 9 C5.01 9.33 4.02 9.66 3 10 C2.67 8.02 2.34 6.04 2 4 C1.34 4 0.68 4 0 4 C0 2.68 0 1.36 0 0 Z " fill="#93312C" transform="translate(44,109)"/>
<path d="M0 0 C3.3 1.65 6.6 3.3 10 5 C9.34 5.66 8.68 6.32 8 7 C1.125 3.375 1.125 3.375 0 0 Z " fill="#BC5753" transform="translate(80,141)"/>
<path d="M0 0 C0.99 0 1.98 0 3 0 C3.75 1.75 3.75 1.75 4 4 C2.0625 6.25 2.0625 6.25 0 8 C-0.98120464 4.94736336 -0.98120464 3.05263664 0 0 Z " fill="#E44B43" transform="translate(98,266)"/>
<path d="M0 0 C1.32 0.66 2.64 1.32 4 2 C2.02 4.97 2.02 4.97 0 8 C-0.98120464 4.94736336 -0.98120464 3.05263664 0 0 Z " fill="#DC4C46" transform="translate(105,258)"/>
<path d="M0 0 C0.66 0.33 1.32 0.66 2 1 C0.71480435 3.86697492 -0.57129254 5.97607712 -3 8 C-3.66 8 -4.32 8 -5 8 C-3.62845496 5.04590299 -2.01136276 2.55991624 0 0 Z " fill="#DE514F" transform="translate(58,225)"/>
<path d="M0 0 C0.99 0.33 1.98 0.66 3 1 C3 1.66 3 2.32 3 3 C2.34 3 1.68 3 1 3 C1.33 3.99 1.66 4.98 2 6 C0.68 5.67 -0.64 5.34 -2 5 C-1.125 1.125 -1.125 1.125 0 0 Z " fill="#A53931" transform="translate(73,205)"/>
<path d="M0 0 C0.66 0 1.32 0 2 0 C2 0.66 2 1.32 2 2 C2.66 2 3.32 2 4 2 C3.67 2.99 3.34 3.98 3 5 C2.34 5 1.68 5 1 5 C0.67 6.32 0.34 7.64 0 9 C0 6.03 0 3.06 0 0 Z " fill="#6A2624" transform="translate(17,132)"/>
<path d="M0 0 C1.0625 1.8125 1.0625 1.8125 2 4 C1.67 4.99 1.34 5.98 1 7 C-0.65 6.67 -2.3 6.34 -4 6 C-2.68 4.02 -1.36 2.04 0 0 Z " fill="#E35048" transform="translate(54,71)"/>
<path d="M0 0 C0.66 0 1.32 0 2 0 C2 0.66 2 1.32 2 2 C2.66 2.33 3.32 2.66 4 3 C2.68 4.32 1.36 5.64 0 7 C-1.125 2.25 -1.125 2.25 0 0 Z " fill="#E53F34" transform="translate(121,176)"/>
<path d="M0 0 C1.33332095 2.6666419 0.67102033 4.16680303 0 7 C-0.99 7.33 -1.98 7.66 -3 8 C-3.33 6.68 -3.66 5.36 -4 4 C-3.01 3.67 -2.02 3.34 -1 3 C-0.67 2.01 -0.34 1.02 0 0 Z " fill="#722E2B" transform="translate(23,117)"/>
<path d="M0 0 C0.99 0.33 1.98 0.66 3 1 C2.19152271 2.16945792 1.37810888 3.33550461 0.5625 4.5 C0.11003906 5.1496875 -0.34242187 5.799375 -0.80859375 6.46875 C-1.20175781 6.9740625 -1.59492187 7.479375 -2 8 C-2.33 8 -2.66 8 -3 8 C-3.36923077 3.44615385 -3.36923077 3.44615385 -1.5 1.1875 C-1.005 0.795625 -0.51 0.40375 0 0 Z " fill="#E15B57" transform="translate(96,114)"/>
<path d="M0 0 C2.15377564 2.62198774 3.40072174 4.64404172 4 8 C3.01 8.33 2.02 8.66 1 9 C0.67 6.03 0.34 3.06 0 0 Z " fill="#E25E59" transform="translate(112,30)"/>
<path d="M0 0 C0.66 0.33 1.32 0.66 2 1 C2 3.64 2 6.28 2 9 C0.05276405 6.07914607 -0.55175352 4.40667322 -1 1 C-0.67 0.67 -0.34 0.34 0 0 Z " fill="#E4453C" transform="translate(129,189)"/>
</svg>
